<svg width="512" height="512" viewBox="0 0 512 512" fill="none" xmlns="http://www.w3.org/2000/svg">
<g clip-path="url(#clip0_2568_2)">
<path d="M404 0H108C48.3532 0 0 48.3532 0 108V404C0 463.647 48.3532 512 108 512H404C463.647 512 512 463.647 512 404V108C512 48.3532 463.647 0 404 0Z" fill="#1A1A1A"/>
<path d="M390.76 173.061H450.665V326.54C450.592 341.115 446.912 353.941 439.624 365.019C432.409 376.023 422.425 384.623 409.672 390.817C396.991 396.939 382.379 400 365.836 400C351.48 400 338.362 397.522 326.483 392.566C314.604 387.538 305.13 379.667 298.061 368.954C290.992 358.168 287.494 344.176 287.566 326.977H348.346C348.565 332.588 349.512 337.325 351.188 341.188C352.937 345.05 355.342 347.965 358.403 349.933C361.537 351.828 365.326 352.775 369.772 352.775C374.29 352.775 378.08 351.791 381.141 349.824C384.274 347.856 386.643 344.941 388.246 341.078C389.849 337.143 390.687 332.297 390.76 326.54V173.061Z" fill="white"/>
<path d="M270.923 257.015H209.269C208.832 251.914 207.666 247.286 205.771 243.132C203.949 238.978 201.398 235.407 198.119 232.419C194.912 229.358 191.013 227.026 186.422 225.423C181.831 223.747 176.62 222.909 170.79 222.909C160.587 222.909 151.951 225.387 144.882 230.342C137.886 235.298 132.566 242.403 128.922 251.659C125.351 260.914 123.566 272.028 123.566 285C123.566 298.701 125.388 310.179 129.032 319.434C132.748 328.617 138.105 335.54 145.101 340.204C152.097 344.795 160.514 347.091 170.353 347.091C175.964 347.091 180.993 346.399 185.438 345.014C189.884 343.557 193.746 341.48 197.026 338.783C200.305 336.087 202.965 332.844 205.006 329.054C207.119 325.192 208.54 320.855 209.269 316.046L270.923 316.483C270.194 325.957 267.534 335.613 262.943 345.451C258.352 355.217 251.829 364.254 243.376 372.562C234.995 380.797 224.61 387.429 212.221 392.457C199.832 397.486 185.438 400 169.041 400C148.49 400 130.052 395.591 113.727 386.773C97.4758 377.955 84.613 364.982 75.139 347.856C65.7379 330.73 61.0373 309.778 61.0373 285C61.0373 260.076 65.8472 239.087 75.4669 222.034C85.0867 204.908 98.0588 191.972 114.383 183.227C130.708 174.409 148.927 170 169.041 170C183.179 170 196.188 171.931 208.067 175.794C219.946 179.656 230.367 185.304 239.331 192.738C248.295 200.098 255.51 209.171 260.975 219.957C266.441 230.743 269.757 243.096 270.923 257.015Z" fill="white"/>
<path d="M314.536 170.073C338.581 170.073 358.073 150.581 358.073 126.536C358.073 102.492 338.581 83 314.536 83C290.492 83 271 102.492 271 126.536C271 150.581 290.492 170.073 314.536 170.073Z" fill="#E53935"/>
</g>
<defs>
<clipPath id="clip0_2568_2">
<rect width="512" height="512" fill="white"/>
</clipPath>
</defs>
</svg>
